<svg width="16" height="16" viewBox="0 0 16 16" fill="none" xmlns="http://www.w3.org/2000/svg">
<rect width="16" height="16" rx="8" fill="#70BE71"/>
<path d="M11.0805 5.06926C11.1301 5.01861 11.1894 4.97838 11.2548 4.95091C11.3201 4.92345 11.3903 4.9093 11.4612 4.9093C11.5321 4.9093 11.6023 4.92345 11.6677 4.95091C11.7331 4.97838 11.7923 5.01861 11.842 5.06926C12.05 5.27944 12.0529 5.61909 11.8492 5.83291L7.54879 10.9166C7.49997 10.9703 7.44072 11.0134 7.37467 11.0433C7.30861 11.0732 7.23715 11.0894 7.16465 11.0907C7.09214 11.0921 7.02012 11.0786 6.95299 11.0512C6.88586 11.0238 6.82504 10.9829 6.77423 10.9312L4.15745 8.2795C4.05653 8.17658 4 8.03819 4 7.89404C4 7.7499 4.05653 7.6115 4.15745 7.50858C4.20709 7.45794 4.26633 7.4177 4.3317 7.39024C4.39708 7.36277 4.46728 7.34862 4.53819 7.34862C4.6091 7.34862 4.6793 7.36277 4.74467 7.39024C4.81005 7.4177 4.86929 7.45794 4.91892 7.50858L7.1386 9.75808L11.066 5.08526C11.0705 5.07964 11.0753 5.07429 11.0805 5.06926Z" fill="white"/>
</svg>
