<svg width="15" height="15" viewBox="0 0 15 15" fill="none" xmlns="http://www.w3.org/2000/svg">
<path d="M5.99449 2.03278C6.64885 0.677592 6.97603 0 7.50001 0C8.02396 0 8.35112 0.677592 9.00554 2.03278L10.1374 4.37684L12.761 4.81784C14.1271 5.04748 14.8102 5.1623 14.9697 5.64173C15.1292 6.12116 14.6522 6.6259 13.6984 7.6354L11.7674 9.67885L12.1769 12.4233C12.3927 13.8696 12.5007 14.5927 12.0789 14.8917C11.6571 15.1908 11.0156 14.8459 9.73266 14.1561L7.50001 12.9557L5.26735 14.1561C3.98438 14.8459 3.3429 15.1908 2.92111 14.8917C2.49932 14.5927 2.60723 13.8696 2.82308 12.4233L3.23265 9.67885L1.30167 7.6354C0.347763 6.6259 -0.129199 6.12116 0.0302993 5.64173C0.189795 5.1623 0.872873 5.04748 2.23903 4.81784L4.86263 4.37684L5.99449 2.03278Z" fill="none"/>
</svg>
